<?xml version="1.0" encoding="UTF-8" standalone="no"?>
<svg
   xmlns:vectornator="http://vectornator.io"
   xmlns:dc="http://purl.org/dc/elements/1.1/"
   xmlns:cc="http://creativecommons.org/ns#"
   xmlns:rdf="http://www.w3.org/1999/02/22-rdf-syntax-ns#"
   xmlns:svg="http://www.w3.org/2000/svg"
   xmlns="http://www.w3.org/2000/svg"
   xmlns:sodipodi="http://sodipodi.sourceforge.net/DTD/sodipodi-0.dtd"
   xmlns:inkscape="http://www.inkscape.org/namespaces/inkscape"
   viewBox="0 0 900 690"
   fill-rule="evenodd"
   clip-rule="evenodd"
   stroke-linecap="round"
   stroke-linejoin="round"
   version="1.1"
   id="svg53"
   sodipodi:docname="image.svg"
   inkscape:version="1.0.2 (e86c870879, 2021-01-15)">
  <metadata
     id="metadata57">
    <rdf:RDF>
      <cc:Work
         rdf:about="">
        <dc:format>image/svg+xml</dc:format>
        <dc:type
           rdf:resource="http://purl.org/dc/dcmitype/StillImage" />
        <dc:title></dc:title>
      </cc:Work>
    </rdf:RDF>
  </metadata>
  <sodipodi:namedview
     pagecolor="#ffffff"
     bordercolor="#666666"
     borderopacity="1"
     objecttolerance="10"
     gridtolerance="10"
     guidetolerance="10"
     inkscape:pageopacity="0"
     inkscape:pageshadow="2"
     inkscape:window-width="1492"
     inkscape:window-height="770"
     id="namedview55"
     showgrid="false"
     inkscape:zoom="0.83665419"
     inkscape:cx="450"
     inkscape:cy="345"
     inkscape:window-x="236"
     inkscape:window-y="164"
     inkscape:window-maximized="0"
     inkscape:current-layer="g51" />
  <defs
     id="defs17">
    <linearGradient
       y1="256.4"
       id="a"
       x1="533.098"
       y2="678.4"
       x2="571.076"
       gradientUnits="userSpaceOnUse"
       gradientTransform="matrix(.68217 0 0 .7395 87.45 -45.622)">
      <stop
         stop-color="#cc231b"
         offset=".015"
         id="stop2" />
      <stop
         stop-opacity=".72"
         stop-color="#ffbab9"
         offset=".998"
         id="stop4" />
    </linearGradient>
    <linearGradient
       y1="256.4"
       id="b"
       x1="533.098"
       y2="678.4"
       x2="571.076"
       gradientUnits="userSpaceOnUse"
       gradientTransform="matrix(.64582 0 0 .7001 39.066 54.137)">
      <stop
         stop-color="#cc231b"
         offset=".015"
         id="stop7" />
      <stop
         stop-opacity=".72"
         stop-color="#ffbab9"
         offset=".998"
         id="stop9" />
    </linearGradient>
    <linearGradient
       y1="256.4"
       id="c"
       x1="533.098"
       y2="678.4"
       x2="571.076"
       gradientUnits="userSpaceOnUse"
       gradientTransform="matrix(.70295 0 0 .76202 76.544 -48.28)">
      <stop
         stop-color="#cc231b"
         offset=".015"
         id="stop12" />
      <stop
         stop-opacity=".72"
         stop-color="#ffbab9"
         offset=".998"
         id="stop14" />
    </linearGradient>
  </defs>
  <g
     vectornator:layername="Zwart"
     id="g43">
    <path
       d="M446.698 421.712c-29.159-5.572-215.197-42.217-274.613-127.193-59.416-84.977-56.92-78.482-55.422-117.993 1.498-39.511 74.325-77.587 83.538-76.534 39.274 4.492 23.889-16.13 30.898-15.832 7.009.299 25.718-34.285 25.718-34.285s87.135-68.188 174.761 62.068c31.143 46.294 25.251 10.381 25.251 10.381C428.773 41.801 454.186.619 528.082 13.609c73.896 12.99 128.817 52.502 130.815 69.822 1.997 17.32-3.235 51.076-5.048 57.755-7.553 27.853-.272 37.118 9.043 34.258 17.151-5.27 29.956-13.532 51.428-3.789 21.469 9.742 23.087 25.834 10.105 42.072-12.982 16.237-64.061 72.488-107.198 119.945-43.174 47.497-141.37 93.612-170.529 88.04z"
       fill="url(#c)"
       id="path19" />
    <path
       stroke="#211611"
       stroke-width=".1"
       d="M353.392 369.697c-21.969-15.823-34.828-49.355-20.842-62.191 13.987-12.835 36.225-12.75 97.584 19.981 23.889 12.743 28.322 51.104 10.459 57.53-39.243 14.115-65.231.503-87.201-15.32zM529.714 330.625c10.702-22.489 65.084-71.957 79.618-66.808s64.033-4.683 25.074 51.765c-14.147 20.498-84.44 76.22-98.974 71.071-14.535-5.15-16.42-33.538-5.718-56.028z"
       fill="#fff"
       stroke-linecap="butt"
       stroke-linejoin="miter"
       id="path21" />
    <path
       stroke="#211611"
       stroke-width=".1"
       d="M366.307 368.792c-21.97-15.823-28.442-39.055-14.455-51.891 13.987-12.835 43.135-10.413 65.104 5.41 21.97 15.822 28.442 39.055 14.455 51.89-13.986 12.835-43.135 10.414-65.104-5.409zM550.119 310.673c10.703-22.489 31.161-36.546 45.695-31.397 14.534 5.15 17.641 27.555 6.938 50.045-10.702 22.489-31.16 36.546-45.694 31.397-14.534-5.15-17.641-27.555-6.939-50.045z"
       fill="#363a3f"
       stroke-linecap="butt"
       stroke-linejoin="miter"
       id="path23" />
    <path
       stroke="#211611"
       stroke-width=".1"
       d="M198.779 98.498c-54.421 30.099-70.571 53.316-62.518 82.512 9.61 34.845 36.687 69.797 40.583 75.811 9.603 14.821 67.475 62.167 82.278 72.593 21.459 15.114 40.965 32.31 64.088 44.599 21.673 11.52 47.267 17.187 69.995 26.6 18.862 7.811 36.889 12.62 55.92 22.098l.463-.126c-65.479-12.18-195.703-43.163-256.951-99.776s-81.883-119.669-84.012-146.992c-2.456-31.524 56.002-74.309 89.877-77.62"
       fill="#363a3f"
       stroke-linecap="butt"
       stroke-linejoin="miter"
       id="path25" />
    <path
       stroke="#211611"
       stroke-width=".1"
       d="M183.154 153.147c1.554-11.631 23.527-44.324 28.953-52.843 8.053-12.642 15.827-23.177 33.32-22.575 7.849.27 13.328-2.107 24.474 22.642 8.682 19.277.96 57.239 17.065 106.602 16.104 49.363 110.91 67.506 110.91 67.506-41.65 3.911-64.692-1.998-79.59-6.392-54.166-15.978-62.636-22.798-71.484-69.901-2.836-15.1 9.095-42.601 7.001-57.918-4.249-31.092-14.924-37.879-22.108-33.154-24.712 16.254-48.098 36.21-49.02 45.864M224.325 52.145c21.914-66.669 194.01-9.3 210.314 62.58l-6.894 3.146c-26.771-47.352-63.855-71.013-113.736-79.27-76.357-12.643-53.78 50.34-89.596 13.766"
       fill="#363a3f"
       stroke-linecap="butt"
       stroke-linejoin="miter"
       id="path27" />
    <path
       stroke="#211611"
       stroke-width=".1"
       d="M650.407 142.783c-1.939-24.495 1.501-44.76-9.34-68.821-13.311-29.55-61.652-43.014-89.908-45.536-50.702-4.526-65.586-5.193-87.327 8.787-11.761 7.563-14.171 17.095-9.211 31.556 3.782 11.026 9.292 24.468 10.317 36.748 1.963 23.532-17.112 44.426-19.16 67.105-2.071 22.931-2.433 34.865 2.471 56.418 2.719 11.943 4.301 24.262 6.594 36.309l-.564.146c-3.878-13.271-6.291-27.265-10.917-40.258-6.647-18.673-16.512-36.439-14.904-57.009 1.54-19.725 19.477-41.004 16.958-60.823-1.294-10.166-7.828-18.822-11.669-27.917-7.744-18.328-4.548-43.74 7.853-59C457.848.493 519.239-4.279 579.726 11.086c28.876 7.335 64.514 24.366 76.079 57.527 8.389 24.047-1.072 49.93-2.988 74.17"
       fill="#363a3f"
       stroke-linecap="butt"
       stroke-linejoin="miter"
       id="path29" />
    <path
       stroke="#211611"
       stroke-width=".1"
       d="M630.012 126.687c-5.061-3.118-18.52 5.561-25.055 7.589-5.347 1.66-11.542 6.896-12.586 11.535-4.789 21.269 10.308 35.789 6.689 57.168-3.81 22.524-45.258 59.583-55.269 79.488l-11.966-3.853c19.345-48.298 39.854-61.711 42.158-69.96 6.164-22.096-8.821-46.817 18.077-85.163 4.73-6.743 30.52-3.345 36.112.799"
       fill="#363a3f"
       stroke-linecap="butt"
       stroke-linejoin="miter"
       id="path31" />
    <path
       stroke="#211611"
       stroke-width=".1"
       d="M614.014 151.359c9.826 13.687 33.536 13.095 49.13 15.405 18.063 2.675 40.366-15.197 58.628-8.897 15.726 5.426 28.78 42.167 15.479 63.993-4.17 6.839-29.561 27.54-36.412 32.846-9.652 7.474-20.395 14.422-30.728 20.755l-1.944-2.806c8.815-9.619 14.328-20.56 24.51-28.762 6.958-5.604 19.699-32.409 18.54-35.82-4.554-13.416-34.227-15.15-45.141-17.795-27.417-6.644-35.772-12.962-54.413-37.646M421.915 323.1s44.869 16.914 32.323 51.429c-13.16 36.2-77.854 18.57-95.252 8.215-13.219-7.869-40.214-29.847-47.06-43.978-20.988-43.319-4.103-57.355 22.14-59.984 27.679-2.772 99.967 12.468 124.653 58.678-24.164-20.849-93.621-54.944-117.885-24.341-2.164 2.728-10.602 10.002-6.024 25.443 4.579 15.44 19.233 33.733 32.353 40.328 21.571 10.842 30.127 11.704 51.51 10.237 11.887-.816 27.414-14.595 27.931-25.501 1.277-26.961-24.689-40.526-24.689-40.526z"
       fill="#363a3f"
       stroke-linecap="butt"
       stroke-linejoin="miter"
       id="path33" />
    <path
       d="M531.825 310.31c6.761-15.659 35.5-45.87 47.326-54.938 15.801-12.119 23.59-18.119 43.67-18.509 10.9-.212 27.125 25.165 29.816 40.469 5.794 32.956-40.895 68.675-60.754 86.507-10.819 9.717-40.915 30.234-55.622 27.317-15.547-3.084-17.744-22.157-15.766-35.907 4.464-31.04 30.715-58.692 55.941-72.782l-3.561 5.493c-8.737 9.769-17.084 20.058-24.937 30.68-10.283 13.913-18.487 29.134-19.598 47.161-.294 4.775 2.828 18.006 9.093 16.946 29.199-4.952 70.282-41.805 90.158-65.701 10.112-12.157 17.676-21.533 19.527-36.224.452-3.585-9.954-9.169-11.854-9.918-11.276-4.447-25.946-5.552-37.554-1.711-22.324 7.393-50.187 23.043-65.885 41.117"
       fill="#363a3f"
       id="path35" />
    <path
       stroke="#211611"
       stroke-width=".1"
       d="M571.691 290.372c3.368-1.738 6.696 6.877 6.696 6.877s-15.371 5.56-23.293 15.407c-.96 1.193-2.001-6.525-1.33-7.503 4.998-7.283 15.365-13.458 17.927-14.781z"
       fill="#fff"
       stroke-linecap="butt"
       stroke-linejoin="miter"
       id="path37" />
    <path
       d="M391.297 336.353c8.466-8.871 17.811-9.031 20.874-.359 3.062 8.672-1.318 22.894-9.784 31.765-8.466 8.871-17.811 9.031-20.874.359-3.062-8.672 1.318-22.894 9.784-31.765z"
       fill="#fff"
       id="path39" />
    <path
       stroke="#211611"
       stroke-width=".1"
       d="M556.501 341.287c-4.307-10.23-3.089-21.377 2.72-24.899 5.809-3.522 14.009 1.916 18.316 12.145 4.307 10.23 3.089 21.377-2.72 24.899s-14.009-1.916-18.316-12.145zM366.014 317.876c6.413-2.881 20.138-2.695 13.995.231-10.545 5.023-14.658 13.242-15.887 19.106-1.229 5.865-10.217-8.645-10.217-8.645s4.892-7.449 12.109-10.692z"
       fill="#fff"
       stroke-linecap="butt"
       stroke-linejoin="miter"
       id="path41" />
  </g>
  <g
     vectornator:layername="Layer 2"
     fill="#2f343c"
     id="g51">
    <g
       stroke="#fff"
       stroke-width=".1"
       stroke-linecap="butt"
       stroke-linejoin="miter"
       id="g47">
      <path
         d="M144.158 501.513c0 7.544-1.312 13.967-3.936 19.27-2.624 5.302-6.204 9.594-10.742 12.874-4.537 3.28-9.84 5.685-15.908 7.216-6.068 1.53-12.6 2.296-19.598 2.296v26.076H59.042V459.857h34.932c6.998 0 13.53.765 19.598 2.296 6.068 1.53 11.371 3.936 15.908 7.216 4.538 3.28 8.118 7.571 10.742 12.874 2.624 5.302 3.936 11.726 3.936 19.27zm-50.184 12.136h1.476c4.592 0 7.9-1.066 9.922-3.198 2.023-2.132 3.034-5.112 3.034-8.938 0-3.827-1.011-6.806-3.034-8.938-2.022-2.132-5.33-3.198-9.922-3.198h-1.476v24.272zM162.143 514.633c0-7.872 1.504-15.307 4.51-22.304 3.007-6.998 7.107-13.093 12.3-18.286 5.194-5.194 11.289-9.294 18.286-12.3 6.998-3.007 14.432-4.51 22.304-4.51 7.872 0 15.307 1.503 22.304 4.51 6.998 3.006 13.093 7.106 18.286 12.3 5.194 5.193 9.294 11.288 12.3 18.286 3.007 6.997 4.51 14.432 4.51 22.304 0 7.872-1.503 15.306-4.51 22.304-3.006 6.997-7.106 13.092-12.3 18.286-5.193 5.193-11.288 9.293-18.286 12.3-6.997 3.006-14.432 4.51-22.304 4.51-7.872 0-15.306-1.504-22.304-4.51-6.997-3.007-13.092-7.107-18.286-12.3-5.193-5.194-9.293-11.289-12.3-18.286-3.006-6.998-4.51-14.432-4.51-22.304zm34.44 0c0 3.17.602 6.15 1.804 8.938 1.203 2.788 2.843 5.22 4.92 7.298 2.078 2.077 4.51 3.717 7.298 4.92 2.788 1.202 5.768 1.804 8.938 1.804 3.171 0 6.15-.602 8.938-1.804 2.788-1.203 5.221-2.843 7.298-4.92 2.078-2.078 3.718-4.51 4.92-7.298 1.203-2.788 1.804-5.768 1.804-8.938 0-3.171-.601-6.15-1.804-8.938-1.202-2.788-2.842-5.221-4.92-7.298-2.077-2.078-4.51-3.718-7.298-4.92-2.788-1.203-5.767-1.804-8.938-1.804-3.17 0-6.15.601-8.938 1.804-2.788 1.202-5.22 2.842-7.298 4.92-2.077 2.077-3.717 4.51-4.92 7.298-1.202 2.788-1.804 5.767-1.804 8.938zM383.324 501.513c0 7.544-1.312 13.967-3.936 19.27-2.624 5.302-6.204 9.594-10.742 12.874-4.537 3.28-9.84 5.685-15.908 7.216-6.068 1.53-12.6 2.296-19.598 2.296v26.076h-34.932V459.857h34.932c6.998 0 13.53.765 19.598 2.296 6.068 1.53 11.371 3.936 15.908 7.216 4.538 3.28 8.118 7.571 10.742 12.874 2.624 5.302 3.936 11.726 3.936 19.27zm-50.184 12.136h1.476c4.592 0 7.9-1.066 9.922-3.198 2.023-2.132 3.034-5.112 3.034-8.938 0-3.827-1.011-6.806-3.034-8.938-2.022-2.132-5.33-3.198-9.922-3.198h-1.476v24.272zM488.886 501.513c0 7.544-1.312 13.967-3.936 19.27-2.624 5.302-6.205 9.594-10.742 12.874-4.538 3.28-9.84 5.685-15.908 7.216-6.068 1.53-12.601 2.296-19.598 2.296v26.076H403.77V459.857h34.932c6.997 0 13.53.765 19.598 2.296 6.068 1.53 11.37 3.936 15.908 7.216 4.537 3.28 8.118 7.571 10.742 12.874 2.624 5.302 3.936 11.726 3.936 19.27zm-50.184 12.136h1.476c4.592 0 7.899-1.066 9.922-3.198 2.022-2.132 3.034-5.112 3.034-8.938 0-3.827-1.012-6.806-3.034-8.938-2.023-2.132-5.33-3.198-9.922-3.198h-1.476v24.272zM534.259 522.177l-33.948-62.32h38.868l12.628 23.124 12.464-23.124h38.868l-33.948 62.32v47.068h-34.932v-47.068zM687.544 497.085c-1.968-1.75-4.428-3.089-7.38-4.018-2.952-.93-5.85-1.394-8.692-1.394-3.171 0-6.068.574-8.692 1.722-2.624 1.148-4.893 2.733-6.806 4.756-1.914 2.022-3.417 4.455-4.51 7.298-1.094 2.842-1.64 5.904-1.64 9.184s.601 6.341 1.804 9.184c1.202 2.842 2.842 5.275 4.92 7.298 2.077 2.022 4.51 3.608 7.298 4.756s5.767 1.722 8.938 1.722c3.717 0 7.106-.793 10.168-2.378 3.061-1.586 5.685-3.745 7.872-6.478h-9.84v-22.96h42.148v36.408a60.43 60.43 0 01-9.02 12.218 57.333 57.333 0 01-11.726 9.43c-4.319 2.624-8.993 4.646-14.022 6.068-5.03 1.421-10.223 2.132-15.58 2.132-7.872 0-15.307-1.476-22.304-4.428-6.998-2.952-13.093-6.998-18.286-12.136-5.194-5.139-9.294-11.207-12.3-18.204-3.007-6.998-4.51-14.542-4.51-22.632 0-7.872 1.421-15.307 4.264-22.304 2.842-6.998 6.751-13.093 11.726-18.286 4.974-5.194 10.878-9.294 17.712-12.3 6.833-3.007 14.186-4.51 22.058-4.51 6.122 0 11.425.601 15.908 1.804 4.482 1.202 8.254 2.569 11.316 4.1 3.608 1.749 6.614 3.662 9.02 5.74l-19.844 28.208zM741.937 514.633c0-7.872 1.503-15.307 4.51-22.304 3.006-6.998 7.106-13.093 12.3-18.286 5.193-5.194 11.288-9.294 18.286-12.3 6.997-3.007 14.432-4.51 22.304-4.51s15.306 1.503 22.304 4.51c6.997 3.006 13.092 7.106 18.286 12.3 5.193 5.193 9.293 11.288 12.3 18.286 3.006 6.997 4.51 14.432 4.51 22.304 0 7.872-1.504 15.306-4.51 22.304-3.007 6.997-7.107 13.092-12.3 18.286-5.194 5.193-11.289 9.293-18.286 12.3-6.998 3.006-14.432 4.51-22.304 4.51s-15.307-1.504-22.304-4.51c-6.998-3.007-13.093-7.107-18.286-12.3-5.194-5.194-9.294-11.289-12.3-18.286-3.007-6.998-4.51-14.432-4.51-22.304zm34.44 0c0 3.17.601 6.15 1.804 8.938 1.202 2.788 2.842 5.22 4.92 7.298 2.077 2.077 4.51 3.717 7.298 4.92 2.788 1.202 5.767 1.804 8.938 1.804 3.17 0 6.15-.602 8.938-1.804 2.788-1.203 5.22-2.843 7.298-4.92 2.077-2.078 3.717-4.51 4.92-7.298 1.202-2.788 1.804-5.768 1.804-8.938 0-3.171-.602-6.15-1.804-8.938-1.203-2.788-2.843-5.221-4.92-7.298-2.078-2.078-4.51-3.718-7.298-4.92-2.788-1.203-5.768-1.804-8.938-1.804-3.171 0-6.15.601-8.938 1.804-2.788 1.202-5.221 2.842-7.298 4.92-2.078 2.077-3.718 4.51-4.92 7.298-1.203 2.788-1.804 5.767-1.804 8.938z"
         id="path45" />
    </g>
    <path
       d="M166.198 635.085l1.676 1.27c-.44.948-.863 1.777-1.269 2.488-.407.711-.897 1.574-1.473 2.59a116.156 116.156 0 01-1.32 2.285c-2.539 4.435-4.926 6.652-7.16 6.652-.948 0-1.761-.372-2.438-1.117s-1.016-1.76-1.016-3.047c0-1.828.652-4.333 1.956-7.515 1.303-3.183 3.317-7.101 6.043-11.756 2.725-4.655 6.153-9.928 10.283-15.819 4.13-5.89 8.785-12.102 13.965-18.636-2.98-.44-6.517-.66-10.614-.66-4.705 0-9.944.524-15.716 1.574-5.773 1.049-10.8 2.26-15.083 3.631-4.282 1.371-6.423 2.378-6.423 3.021 0 .237.084.398.254.483.169.084.448.152.837.203.39.05.889.11 1.498.177 3.961.542 5.942 1.151 5.942 1.829 0 .338-.863.499-2.59.482a650.649 650.649 0 00-6.246-.025c-1.93 0-3.326-.077-4.189-.229-.864-.152-1.439-.44-1.727-.863-.288-.423-.432-1.075-.432-1.955 0-.576.17-1.828.508-3.758.643-3.589 1.634-6.466 2.971-8.633 1.337-2.167 3.385-3.935 6.144-5.307 2.759-1.371 6.56-2.462 11.401-3.275 8.125-1.388 14.845-2.082 20.16-2.082 3.927 0 7.025.161 9.293.482 2.268.322 3.935.788 5.002 1.397 1.066.609 1.743 1.21 2.031 1.803.288.592.669 1.616 1.143 3.072l1.574 4.672c.101.305.186.55.254.736.067.186.127.381.178.584.05.203.076.389.076.559 0 1.32-.297 2.505-.889 3.554-.592 1.05-1.676 2.624-3.25 4.723-1.574 2.099-2.734 3.741-3.479 4.926-8.734 14.185-14.692 24.68-17.875 31.484zM224.158 629.195v3.199c-2.945 3.013-5.492 5.476-7.642 7.388-2.15 1.913-4.029 3.361-5.637 4.342-1.608.982-2.971 1.473-4.088 1.473-2.64 0-3.961-1.557-3.961-4.672 0-2.505.821-5.408 2.463-8.709s4.003-7.185 7.084-11.654a29.646 29.646 0 00-4.316 2.92 29.303 29.303 0 00-3.606 3.453 223.054 223.054 0 00-2.64 3.072 157.935 157.935 0 00-6.348 7.592c-2.031 2.59-3.402 4.274-4.113 5.053-.711.778-1.388 1.168-2.032 1.168-2.64 0-3.96-3.25-3.96-9.75 0-2.133.321-4.486.964-7.059.644-2.573 2.37-5.975 5.18-10.207 5.925-8.87 10.994-16.123 15.209-21.76 4.215-5.637 7.71-9.902 10.486-12.797 2.776-2.894 4.638-4.308 5.586-4.24 1.185.102 2.142.339 2.869.711.728.372 1.092.796 1.092 1.27 0 .846-.584 2.242-1.752 4.189-1.168 1.947-3.174 4.985-6.017 9.115a1090.76 1090.76 0 01-6.551 9.217c-1.287 1.777-3.208 4.3-5.764 7.566a409.668 409.668 0 01-7.008 8.735 239.454 239.454 0 01-7.236 8.303v6.093c4.537-5.044 8.464-9.174 11.781-12.39 3.318-3.216 6.128-5.645 8.43-7.287s3.995-2.463 5.078-2.463c1.016 0 1.964.601 2.844 1.802.88 1.202 1.32 2.192 1.32 2.971 0 .339-.169.762-.508 1.27-2.437 2.911-4.375 5.323-5.814 7.236-1.439 1.913-2.548 3.622-3.326 5.129-.779 1.506-1.168 2.801-1.168 3.885 0 1.591.762 2.386 2.285 2.386 1.625 0 5.23-2.183 10.816-6.55zM234.689 631.023v1.269c0 1.998.491 3.555 1.472 4.672.982 1.117 2.269 1.676 3.86 1.676 1.659 0 3.377-.389 5.154-1.168 1.777-.779 3.546-1.811 5.307-3.098 1.76-1.286 3.91-3.013 6.449-5.179v3.097c-3.826 4.604-7.414 8.134-10.766 10.588-3.351 2.455-6.754 3.682-10.207 3.682-3.013 0-5.4-1.168-7.16-3.504s-2.641-5.535-2.641-9.598c0-3.554.83-6.779 2.489-9.674 1.659-2.894 4.367-5.949 8.125-9.166 2.573-2.2 5.129-3.859 7.668-4.976 2.539-1.117 4.807-1.676 6.804-1.676 1.591 0 2.853.364 3.784 1.092.93.728 1.396 1.819 1.396 3.275 0 2.133-.796 4.257-2.387 6.373s-4.02 4.215-7.287 6.297-7.287 4.088-12.06 6.018zm.507-3.301c3.047-1.185 5.654-2.658 7.821-4.418 2.166-1.76 3.766-3.445 4.799-5.053 1.032-1.608 1.548-2.784 1.548-3.529 0-.779-.355-1.168-1.066-1.168-.609 0-1.6.389-2.971 1.168s-2.759 1.794-4.164 3.047c-1.405 1.252-2.666 2.725-3.783 4.418a14.28 14.28 0 00-2.184 5.535zM296.882 620.105c5.146-4.672 10.139-8.142 14.98-10.41 4.841-2.269 8.582-3.403 11.223-3.403.711 0 1.371.296 1.98.889a6.748 6.748 0 011.448 2.057c.355.778.533 1.354.533 1.726 0 .61-.237 1.058-.711 1.346-.474.288-1.303.635-2.488 1.041.237.542.541 1.236.914 2.082.372.846.66 1.532.863 2.057.203.524.305.99.305 1.396 0 .813-.821 2.327-2.463 4.545-1.642 2.217-2.793 3.851-3.453 4.9-.66 1.05-.991 2.336-.991 3.86 0 2.505 1.152 3.758 3.454 3.758 2.369 0 6.076-2.218 11.121-6.653v3.098c-8.565 9.513-14.693 14.269-18.383 14.269-1.32 0-2.26-.431-2.818-1.295-.559-.863-.838-2.141-.838-3.834 0-2.674.964-6.55 2.894-11.628-4.943 5.484-8.616 9.386-11.019 11.705-2.404 2.319-4.384 3.478-5.942 3.478-.745 0-1.676-.643-2.793-1.93-1.117-1.286-2.107-2.953-2.97-5.002a16.236 16.236 0 01-1.295-6.373c0-1.591.152-2.919.457-3.986.304-1.066.897-2.158 1.777-3.275.88-1.117 2.285-2.59 4.215-4.418zm24.324-5.586c-8.802 4.028-15.073 7.448-18.814 10.258-3.741 2.81-5.612 5.704-5.612 8.683 0 1.084.186 1.972.559 2.666.372.694.88 1.041 1.523 1.041.373 0 1.033-.237 1.981-.711 3.554-2.099 6.804-4.832 9.75-8.201 2.945-3.368 6.483-7.947 10.613-13.736zM334.936 633.46v-3.554c4.739-5.146 8.827-9.987 12.263-14.524a2163.52 2163.52 0 008.151-10.816c1.997-2.675 3.757-4.562 5.281-5.662 1.523-1.101 3.436-1.651 5.738-1.651 1.151 0 1.727.44 1.727 1.321 0 .71-.466 1.76-1.397 3.148-.931 1.388-2.124 2.81-3.58 4.266-1.93 1.895-3.817 4.274-5.662 7.134-1.845 2.861-3.936 6.509-6.271 10.944 1.828-1.422 3.935-3.106 6.322-5.053s4.333-3.47 5.84-4.57c1.506-1.101 2.996-1.972 4.468-2.616 1.473-.643 2.954-.964 4.444-.964.948 0 1.565.169 1.853.507.288.339.432.999.432 1.981 0 2.573-.626 5.086-1.879 7.541-1.253 2.454-3.047 5.002-5.383 7.642-2.336 2.641-5.213 5.519-8.633 8.633 1.185.44 2.404.66 3.657.66 3.927 0 9.191-2.996 15.793-8.988v3.656a258.894 258.894 0 01-7.541 6.5c-2.455 2.032-4.765 3.657-6.932 4.875-2.167 1.219-4.164 1.829-5.992 1.829-.677 0-1.397-.077-2.158-.229a16.474 16.474 0 01-2.108-.559 54.507 54.507 0 01-2.488-.939c-1.016-.406-1.794-.694-2.336-.863-1.083.27-1.693.406-1.828.406-1.185 0-2.573-.474-4.164-1.422-1.117 2.167-2.345 4.968-3.682 8.404-1.337 3.437-2.463 6.17-3.377 8.202-.914 2.031-2.133 3.977-3.656 5.839-.846.847-1.439 1.27-1.777 1.27-1.456 0-2.184-1.287-2.184-3.859 0-2.235.448-4.562 1.346-6.983a40.916 40.916 0 013.3-6.881 111.69 111.69 0 014.291-6.576c1.558-2.217 2.658-3.868 3.301-4.951 5.349-9.208 9.513-17.046 12.492-23.512-7.786 9.479-13.677 16.284-17.671 20.414zm20.617 2.489c3.351-3.521 5.848-6.517 7.49-8.989 1.642-2.471 2.463-4.367 2.463-5.687 0-1.253-.626-1.879-1.879-1.879-1.693 0-4.071 1.396-7.135 4.189s-6.221 6.56-9.471 11.299c2.506-.271 4.181-.364 5.028-.279.846.084 2.014.533 3.504 1.346zM379.54 633.46v-3.554c4.74-5.146 8.827-9.987 12.264-14.524 3.436-4.536 6.153-8.142 8.15-10.816 1.997-2.675 3.758-4.562 5.281-5.662 1.524-1.101 3.436-1.651 5.739-1.651 1.151 0 1.726.44 1.726 1.321 0 .71-.465 1.76-1.396 3.148-.931 1.388-2.125 2.81-3.58 4.266-1.93 1.895-3.818 4.274-5.663 7.134-1.845 2.861-3.935 6.509-6.271 10.944a352.018 352.018 0 006.322-5.053c2.387-1.947 4.334-3.47 5.84-4.57 1.507-1.101 2.996-1.972 4.469-2.616 1.472-.643 2.954-.964 4.443-.964.948 0 1.566.169 1.854.507.287.339.431.999.431 1.981 0 2.573-.626 5.086-1.879 7.541-1.252 2.454-3.046 5.002-5.382 7.642-2.336 2.641-5.214 5.519-8.633 8.633 1.185.44 2.403.66 3.656.66 3.927 0 9.191-2.996 15.793-8.988v3.656a258.894 258.894 0 01-7.541 6.5c-2.454 2.032-4.765 3.657-6.932 4.875-2.166 1.219-4.164 1.829-5.992 1.829-.677 0-1.396-.077-2.158-.229a16.458 16.458 0 01-2.107-.559 54.475 54.475 0 01-2.489-.939c-1.015-.406-1.794-.694-2.336-.863-1.083.27-1.692.406-1.828.406-1.185 0-2.573-.474-4.164-1.422-1.117 2.167-2.344 4.968-3.681 8.404-1.338 3.437-2.463 6.17-3.377 8.202-.915 2.031-2.133 3.977-3.657 5.839-.846.847-1.439 1.27-1.777 1.27-1.456 0-2.184-1.287-2.184-3.859 0-2.235.449-4.562 1.346-6.983a40.843 40.843 0 013.301-6.881 111.185 111.185 0 014.291-6.576c1.557-2.217 2.657-3.868 3.301-4.951 5.349-9.208 9.513-17.046 12.492-23.512-7.787 9.479-13.677 16.284-17.672 20.414zm20.617 2.489c3.352-3.521 5.848-6.517 7.49-8.989 1.642-2.471 2.463-4.367 2.463-5.687 0-1.253-.626-1.879-1.879-1.879-1.692 0-4.071 1.396-7.134 4.189-3.064 2.793-6.221 6.56-9.471 11.299 2.505-.271 4.181-.364 5.027-.279.847.084 2.015.533 3.504 1.346zM484.643 629.195v3.504c-2.031 2.031-3.571 3.503-4.621 4.417-1.049.915-2.488 1.846-4.316 2.793 0 3.081-.152 5.705-.457 7.872-.305 2.166-.982 4.443-2.031 6.83-1.05 2.386-2.675 5.002-4.875 7.845-2.167 2.81-4.3 4.968-6.399 6.475-2.099 1.506-3.741 2.26-4.926 2.26-1.32 0-2.539-1.084-3.656-3.25-1.117-2.167-1.676-4.858-1.676-8.075 0-3.08.525-6.33 1.575-9.75 1.049-3.419 2.674-7.837 4.875-13.253-1.659-2.167-2.489-4.317-2.489-6.45 0-1.726.44-3.047 1.321-3.961.88-.914 2.132-1.743 3.757-2.488 1.185-1.862 2.311-3.445 3.377-4.748a487.44 487.44 0 014.342-5.205 209.159 209.159 0 0112.391-25.391c1.32-2.302 2.268-3.851 2.844-4.646.575-.796 1.184-1.193 1.828-1.193.575 0 1.083.423 1.523 1.269.44.846.66 1.947.66 3.301 0 1.659-.177 3.182-.533 4.57a23.633 23.633 0 01-1.523 4.19c-.661 1.405-1.575 3.089-2.743 5.052a356.084 356.084 0 00-2.158 3.657 746.768 746.768 0 01-5.738 9.902l-5.053 8.582c-1.235 2.099-2.124 3.673-2.666 4.723 1.828 1.591 3.276 2.962 4.342 4.113 1.066 1.151 1.989 2.522 2.768 4.113 1.151-.44 2.2-.965 3.148-1.574.948-.609 2.065-1.447 3.352-2.514a99.16 99.16 0 013.757-2.97zm-15.183 13.609l-.102-1.066c-.948.101-1.709.127-2.285.076-.575-.051-1.244-.195-2.006-.432-.762-.237-1.354-.457-1.777-.66s-.889-.406-1.397-.609c-2.573 6.296-3.859 11.527-3.859 15.691 0 2.065.313 3.825.939 5.281.627 1.456 1.363 2.184 2.209 2.184.881 0 1.989-.779 3.327-2.336 1.337-1.557 2.496-3.859 3.478-6.906.982-3.047 1.473-6.788 1.473-11.223zM519.599 629.093v3.402c-2.234 2.032-4.028 3.386-5.382 4.063-1.355.677-3.301.948-5.84.812-4.401 5.214-8.278 7.821-11.629 7.821-1.896 0-3.623-.627-5.18-1.879-1.557-1.253-2.801-2.962-3.732-5.129-.931-2.167-1.397-4.587-1.397-7.262 0-2.167.72-4.57 2.158-7.211 1.439-2.64 3.301-5.103 5.586-7.388 2.286-2.286 4.731-4.131 7.338-5.536 2.607-1.405 5.028-2.107 7.262-2.107 1.591 0 2.844.245 3.758.736.914.491 1.371 1.177 1.371 2.057 0 .677-.389 1.456-1.168 2.336 1.286.271 2.167.719 2.641 1.346.473.626.71 1.768.71 3.427 0 1.625-.38 3.673-1.142 6.145a30.714 30.714 0 01-3.123 6.957l.914.914h.762c.575 0 1.142-.144 1.701-.432a11.241 11.241 0 001.498-.914c.44-.321 1.405-1.041 2.894-2.158zm-10.461-13.355c-2.809 1.692-5.213 3.224-7.211 4.595-1.997 1.371-3.69 2.759-5.078 4.164-1.388 1.405-2.319 2.819-2.793 4.241-.846 3.791-1.269 5.839-1.269 6.144 0 2.234 1.557 3.352 4.672 3.352 1.455 0 3.893-1.253 7.312-3.758-.575-1.591-.863-3.115-.863-4.57 0-2.133.44-4.308 1.32-6.526.88-2.217 2.184-4.765 3.91-7.642zM521.395 633.105v-3.301c1.828-2.167 3.216-4.012 4.164-5.535-1.083-.373-1.87-.83-2.361-1.371-.491-.542-.736-1.354-.736-2.438 0-1.219.507-2.759 1.523-4.621a26.518 26.518 0 013.758-5.23c1.489-1.625 2.844-2.675 4.062-3.149.474-.237.931-.355 1.371-.355.678 0 1.016.321 1.016.965 0 .575-.525 1.743-1.574 3.504 6.974-1.084 11.375-1.625 13.203-1.625.711 0 1.202.067 1.473.203.575.304 1.049 1.015 1.422 2.132a10.56 10.56 0 01.558 3.352c0 .711-.313 1.481-.939 2.311-.627.829-1.702 2.039-3.225 3.63a30.234 30.234 0 00-4.519 6.297c-1.219 2.269-1.829 3.978-1.829 5.129 0 1.591.982 2.387 2.946 2.387 2.065 0 5.653-2.099 10.765-6.297v3.402c-2.81 2.946-5.129 5.265-6.957 6.957-1.828 1.693-3.521 3.039-5.078 4.038-1.557.998-2.945 1.498-4.164 1.498-1.422 0-2.607-.652-3.555-1.956-.947-1.303-1.421-3.19-1.421-5.662 0-1.455.372-3.114 1.117-4.976s1.836-3.885 3.275-6.069a74.651 74.651 0 014.85-6.525c-.948.203-2.015.415-3.199.635-1.185.22-2.438.448-3.758.685-1.321.237-2.336.424-3.047.559-2.099 4.198-5.146 8.006-9.141 11.426zM597.096 600.605l-10.918 5.738c-1.692.846-2.827 1.27-3.402 1.27-1.05 0-1.82-.331-2.311-.991-.49-.66-.736-1.684-.736-3.072 0-1.591.339-3.428 1.016-5.51s1.455-3.614 2.336-4.595c.914-1.016 3.055-2.413 6.423-4.19 3.369-1.777 7.423-3.563 12.163-5.357a114.086 114.086 0 0114.828-4.469c5.146-1.185 9.851-1.777 14.117-1.777 2.979 0 5.18.474 6.601 1.422 1.422.947 2.133 3.453 2.133 7.515 0 2.201-.753 4.647-2.259 7.338-1.507 2.691-3.318 5.307-5.434 7.846s-6.035 7.041-11.756 13.508c3.047-.474 5.281-.779 6.703-.915 1.422-.135 4.08-.423 7.973-.863 4.502-6.5 8.142-11.688 10.918-15.564 2.776-3.877 5.129-7.093 7.058-9.649 1.93-2.556 3.081-4.02 3.454-4.392.677-.779 1.244-1.075 1.701-.889s.685.889.685 2.107c0 1.388-.144 2.523-.431 3.403-.288.88-.737 1.752-1.346 2.615-.609.863-.931 1.329-.965 1.397-.88 1.455-2.15 3.36-3.809 5.712a969.981 969.981 0 00-4.875 6.983 312.337 312.337 0 00-5.433 8.176c3.792.135 7.532.626 11.223 1.472l-9.141 12.391c-2.505-.339-5.84-.508-10.004-.508a444.147 444.147 0 00-2.361 4.774 38.973 38.973 0 00-1.422 3.275c-.39 1.032-.584 1.989-.584 2.869 0 .542.161 1.261.482 2.158.322.897.483 1.414.483 1.549 0 .677-.5 1.397-1.498 2.158-.999.762-2.167 1.431-3.504 2.006-1.338.576-2.379.863-3.123.863-1.253 0-1.879-.947-1.879-2.843 0-3.927 2.014-9.395 6.043-16.403-5.349.44-11.494 1.236-18.434 2.387a200.65 200.65 0 00-5.433 7.516 211.849 211.849 0 00-3.987 5.992c-1.032 1.625-1.794 2.708-2.285 3.25s-1.024.812-1.6.812c-.981 0-1.811-.423-2.488-1.269-.305-.339-.499-.677-.584-1.016a4.632 4.632 0 01-.127-1.117v-1.066c0-.407.22-.999.66-1.778.44-.778 1.49-2.327 3.149-4.646s2.877-4.071 3.656-5.256c-.88.102-2.014.152-3.402.152-1.761 0-3.191-.321-4.291-.965-1.101-.643-1.651-1.438-1.651-2.386 0-1.084.288-2.243.864-3.479.575-1.235 1.32-2.268 2.234-3.097.914-.83 1.828-1.245 2.742-1.245.61 0 1.337.187 2.184.559l13.101-3.25c7.313-7.922 12.763-14.185 16.352-18.789 3.588-4.604 5.383-7.566 5.383-8.887 0-.745-.203-1.362-.61-1.853-.406-.491-.973-.872-1.701-1.143-.728-.271-1.566-.406-2.514-.406-1.117 0-2.886.305-5.306.914-2.421.609-5.307 1.506-8.658 2.691-3.352 1.185-7.533 2.827-12.543 4.926-3.724 1.524-5.586 2.488-5.586 2.895 0 .474.254.778.761.914.508.135 1.16.237 1.956.304.795.068 1.193.187 1.193.356 0 .135-.195.321-.584.558s-.923.525-1.6.864zM679.787 625.741c-4.909 6.5-8.642 11.122-11.198 13.864-2.556 2.742-4.646 4.113-6.271 4.113-1.287 0-2.471-.533-3.555-1.6-1.083-1.066-1.921-2.505-2.513-4.316-.593-1.811-.889-3.749-.889-5.814 0-1.355.127-2.573.381-3.657.254-1.083.736-2.276 1.447-3.58.711-1.303 1.65-2.717 2.818-4.24 1.168-1.523 2.599-3.25 4.291-5.18 1.016-1.185 1.871-2.183 2.565-2.996.694-.812 1.371-1.362 2.031-1.65.66-.288 1.735-.432 3.225-.432 1.083 0 2.116.144 3.097.432.982.288 1.473.584 1.473.889 0 .609-.499 1.709-1.498 3.3s-2.607 3.53-4.824 5.815c-2.218 2.285-4.782 4.528-7.694 6.728-.643 1.998-.964 3.521-.964 4.571 0 1.455.558 2.183 1.675 2.183.407 0 1.084-.347 2.032-1.041.947-.694 2.547-2.031 4.798-4.012a461.934 461.934 0 016.069-5.255c1.32-1.151 2.852-2.87 4.595-5.155 1.744-2.285 3.157-4.003 4.241-5.154 2.505-2.641 4.215-4.359 5.129-5.154.914-.796 1.794-1.194 2.64-1.194.813 0 1.363.254 1.651.762.287.508.431 1.54.431 3.098 0 .711-.067 1.286-.203 1.726-.135.44-.415 1.007-.838 1.701-.423.694-1.278 1.972-2.564 3.834-1.287 1.862-2.81 4.063-4.571 6.602a26.247 26.247 0 00-2.488 4.443c-.711 1.608-1.066 2.819-1.066 3.631 0 1.761.694 2.641 2.082 2.641 1.151 0 2.488-.474 4.012-1.422 1.523-.948 3.859-2.658 7.007-5.129v3.402c-3.961 3.657-6.889 6.314-8.785 7.973-1.896 1.659-3.538 2.911-4.926 3.758-1.388.846-2.708 1.269-3.961 1.269-2.843 0-4.265-1.692-4.265-5.078 0-1.286.423-3.021 1.269-5.205.847-2.183 2.218-5.34 4.114-9.471zM738.661 632.597l-16.86 13.863c-4.739 8.193-9.056 14.312-12.949 18.358-3.893 4.045-6.788 6.068-8.684 6.068-1.015 0-1.523-.626-1.523-1.879 0-2.437 1.236-5.552 3.707-9.344a37.83 37.83 0 013.377-4.367c1.27-1.422 2.471-2.649 3.605-3.681 1.135-1.033 2.633-2.319 4.495-3.86a425.803 425.803 0 003.808-3.174c3.386-6.906 5.823-12.187 7.313-15.843-3.183 3.385-5.959 6.161-8.328 8.328-2.37 2.166-4.545 3.834-6.526 5.002-1.98 1.168-3.766 1.752-5.357 1.752-1.727 0-3.318-1.38-4.774-4.139-1.455-2.759-2.183-5.594-2.183-8.506 0-1.354.313-2.776.939-4.266.626-1.489 1.608-3.08 2.945-4.773 1.338-1.693 3.039-3.428 5.104-5.205 2.065-1.777 4.486-3.512 7.262-5.205 5.247-3.284 9.327-4.926 12.238-4.926 2.167 0 3.25.796 3.25 2.387 0 2.2-2.353 4.35-7.059 6.449-2.877 1.253-5.729 2.911-8.556 4.977-2.827 2.065-5.112 4.257-6.856 6.576-1.743 2.319-2.615 4.409-2.615 6.271 0 .914.22 1.642.66 2.184.44.541 1.016.812 1.727.812 1.185 0 2.539-.541 4.062-1.625 1.524-1.083 3.775-2.996 6.754-5.738 1.354-1.253 3.157-3.275 5.408-6.068 2.252-2.793 4.114-4.926 5.586-6.399 1.473-1.472 2.802-2.209 3.987-2.209.677 0 1.227.212 1.65.635s.635 1.041.635 1.854c0 1.557-.618 3.817-1.854 6.779-1.235 2.962-3.461 7.812-6.677 14.549l12.289-8.938v3.301zM773.363 629.093v3.402c-2.235 2.032-4.029 3.386-5.383 4.063-1.354.677-3.301.948-5.84.812-4.401 5.214-8.277 7.821-11.629 7.821-1.896 0-3.622-.627-5.18-1.879-1.557-1.253-2.801-2.962-3.732-5.129-.931-2.167-1.396-4.587-1.396-7.262 0-2.167.719-4.57 2.158-7.211 1.439-2.64 3.301-5.103 5.586-7.388 2.285-2.286 4.731-4.131 7.338-5.536 2.606-1.405 5.027-2.107 7.261-2.107 1.591 0 2.844.245 3.758.736s1.371 1.177 1.371 2.057c0 .677-.389 1.456-1.168 2.336 1.287.271 2.167.719 2.641 1.346.474.626.711 1.768.711 3.427 0 1.625-.381 3.673-1.143 6.145a30.67 30.67 0 01-3.123 6.957l.914.914h.762c.575 0 1.143-.144 1.701-.432a11.177 11.177 0 001.498-.914c.44-.321 1.405-1.041 2.895-2.158zm-10.461-13.355c-2.81 1.692-5.214 3.224-7.211 4.595-1.998 1.371-3.69 2.759-5.078 4.164-1.388 1.405-2.319 2.819-2.793 4.241-.847 3.791-1.27 5.839-1.27 6.144 0 2.234 1.557 3.352 4.672 3.352 1.456 0 3.893-1.253 7.313-3.758-.576-1.591-.864-3.115-.864-4.57 0-2.133.44-4.308 1.321-6.526.88-2.217 2.183-4.765 3.91-7.642z"
       id="path49" />
  </g>
</svg>
