<?xml version="1.0" encoding="UTF-8" standalone="no"?> <!-- Created with Vectornator for iOS (http://vectornator.io/) --><!DOCTYPE svg PUBLIC "-//W3C//DTD SVG 1.1//EN" "http://www.w3.org/Graphics/SVG/1.1/DTD/svg11.dtd">
<svg height="100%" style="fill-rule:evenodd;clip-rule:evenodd;stroke-linecap:round;stroke-linejoin:round;" xmlns:xlink="http://www.w3.org/1999/xlink" xmlns="http://www.w3.org/2000/svg" xml:space="preserve" width="100%" xmlns:vectornator="http://vectornator.io" version="1.1" viewBox="0 0 1200 230">
<metadata>
<vectornator:setting key="RulersVisible" value="1"/>
<vectornator:setting key="Units" value="Points"/>
<vectornator:setting key="DynamicGuides" value="1"/>
<vectornator:setting key="GuidesVisible" value="1"/>
<vectornator:setting key="CMYKEnabledKey" value="0"/>
<vectornator:setting key="SnapToGuides" value="1"/>
<vectornator:setting key="GridSpacing" value="36"/>
</metadata>
<defs>
<linearGradient y1="256.4" id="LinearGradient" x1="533.098" y2="678.4" x2="571.076" gradientUnits="userSpaceOnUse" gradientTransform="matrix(0.327687 0 0 0.355223 10.1984 -2.04942)">
<stop stop-color="#cc231b" offset="0.015"/>
<stop stop-opacity="0.72" stop-color="#ffbab9" offset="0.9975"/>
</linearGradient>
<linearGradient y1="256.4" id="LinearGradient_2" x1="533.098" y2="678.4" x2="571.076" gradientUnits="userSpaceOnUse" gradientTransform="matrix(0.321968 0 0 0.349024 5.1932 -5.45716)">
<stop stop-color="#cc231b" offset="0.015"/>
<stop stop-opacity="0.72" stop-color="#ffbab9" offset="0.9975"/>
</linearGradient>
</defs>
<g id="Outlines" vectornator:layerName="Outlines" visibility="hidden">
<path d="M182.749+217.042C165.06+212.501+82.4329+197.362+54.7356+157.75C27.0383+118.137+28.202+121.165+28.9003+102.746C29.5985+84.3276+63.5475+66.5781+67.8422+67.0692C86.1499+69.1629+78.9782+59.5499+82.2456+59.689C85.513+59.8282+94.2341+43.7065+94.2341+43.7065C94.2341+43.7065+134.853+11.9203+175.701+72.6401C190.218+94.2203+187.472+77.4793+187.472+77.4793C174.393+39.9429+186.24+20.7457+220.687+26.8011C255.134+32.8565+280.736+51.2751+281.667+59.349C282.599+67.4228+280.159+83.1586+279.314+86.2719C275.794+99.2558+279.188+103.575+283.53+102.241C291.525+99.7853+297.494+95.9338+307.503+100.475C317.511+105.017+325.657+114.1+319.605+121.669C313.554+129.239+282.366+151.694+280.038+157.245C277.711+162.796+238.842+198.624+218.825+207.707C198.809+216.789+200.437+221.584+182.749+217.042Z" fill-rule="evenodd" fill="url(#LinearGradient)" opacity="1"/>
<path d="M112.007+158.569C118.361+144.817+138.241+149.289+159.352+158.176C180.464+167.063+194.162+182.217+187.808+195.968C181.453+209.719+161.107+209.962+139.995+201.075C118.884+192.188+105.652+172.32+112.007+158.569Z" fill-rule="evenodd" fill="#ffffff" opacity="1"/>
<path d="M222.033+199.611C214.161+192.277+219.561+172.919+234.094+156.374C248.629+139.828+266.791+132.362+274.664+139.696C282.536+147.032+277.136+166.39+262.602+182.935C248.068+199.481+229.905+206.946+222.033+199.611Z" fill-rule="evenodd" fill="#ffffff" opacity="1"/>
<path stroke="#211611" fill-rule="evenodd" stroke-width="0.1" d="M69.1101+66.7544C43.7409+80.7856+36.2127+91.608+39.9663+105.218C44.4463+121.462+57.0683+137.755+58.8848+140.558C63.3612+147.467+90.3386+169.538+97.2393+174.398C107.243+181.444+116.335+189.46+127.114+195.188C137.217+200.558+149.148+203.2+159.743+207.588C168.536+211.229+176.939+213.471+185.811+217.889L186.027+217.83C155.503+212.153+94.7979+197.71+66.2466+171.319C37.6953+144.929+28.0764+115.534+27.0839+102.797C25.9388+88.102+53.1896+68.1575+68.9807+66.614" fill="#49525d" stroke-linecap="butt" opacity="1" stroke-linejoin="miter"/>
<path stroke="#211611" fill-rule="evenodd" stroke-width="0.1" d="M61.8259+92.2295C62.5503+86.8077+72.7935+71.5675+75.3229+67.5963C79.0766+61.7032+82.7007+56.7923+90.8552+57.073C94.5143+57.1988+97.068+56.0908+102.264+67.6275C106.311+76.6139+102.712+94.3101+110.219+117.321C117.726+140.332+161.921+148.789+161.921+148.789C142.505+150.613+131.764+147.858+124.819+145.81C99.5693+138.362+95.6206+135.182+91.4963+113.225C90.1742+106.186+95.7357+93.366+94.7599+86.2257C92.7791+71.7322+87.803+68.5683+84.4538+70.771C72.9342+78.3479+62.0327+87.6507+61.6029+92.1507" fill="#49525d" stroke-linecap="butt" opacity="1" stroke-linejoin="miter"/>
<path stroke="#211611" fill-rule="evenodd" stroke-width="0.1" d="M81.0181+45.1465C91.2335+14.0682+171.458+40.8109+179.058+74.3186L175.845+75.7854C163.365+53.7117+146.078+42.6821+122.826+38.8325C87.231+32.9394+97.7552+62.2994+81.0595+45.25" fill="#49525d" stroke-linecap="butt" opacity="1" stroke-linejoin="miter"/>
<path stroke="#211611" fill-rule="evenodd" stroke-width="0.1" d="M279.64+87.3982C278.736+75.9797+280.34+66.5328+275.286+55.3165C269.082+41.542+246.547+35.2652+233.375+34.0897C209.74+31.9801+202.802+31.669+192.667+38.186C187.184+41.7117+186.061+46.1548+188.373+52.8958C190.136+58.0358+192.705+64.3021+193.182+70.0263C194.098+80.996+185.205+90.7358+184.25+101.308C183.285+111.997+183.116+117.561+185.403+127.608C186.67+133.175+187.408+138.918+188.476+144.534L188.213+144.602C186.406+138.415+185.281+131.892+183.124+125.835C180.026+117.13+175.427+108.849+176.177+99.2598C176.895+90.0646+185.256+80.1455+184.082+70.9065C183.479+66.1674+180.433+62.1323+178.642+57.8929C175.032+49.3488+176.522+37.5026+182.303+30.3894C189.877+21.0683+218.495+18.8441+246.692+26.0063C260.153+29.4256+276.765+37.365+282.156+52.8231C286.067+64.0329+281.657+76.0987+280.764+87.3982" fill="#49525d" stroke-linecap="butt" opacity="1" stroke-linejoin="miter"/>
<path stroke="#211611" fill-rule="evenodd" stroke-width="0.1" d="M270.133+79.8949C267.774+78.4417+261.5+82.4872+258.454+83.4327C255.961+84.2066+253.073+86.6473+252.586+88.81C250.354+98.7247+257.392+105.493+255.704+115.459C253.928+125.959+234.607+143.234+229.94+152.513L224.362+150.717C233.38+128.202+242.941+121.95+244.014+118.105C246.888+107.804+239.902+96.2805+252.441+78.4053C254.646+75.2617+266.668+76.8457+269.275+78.7777" fill="#49525d" stroke-linecap="butt" opacity="1" stroke-linejoin="miter"/>
<path stroke="#211611" fill-rule="evenodd" stroke-width="0.1" d="M262.675+91.3959C267.256+97.7764+278.309+97.5005+285.578+98.5772C293.998+99.8241+304.395+91.4929+312.908+94.4296C320.238+96.9592+326.324+114.086+320.123+124.261C318.18+127.449+306.343+137.099+303.149+139.572C298.65+143.056+293.642+146.295+288.825+149.247L287.919+147.939C292.028+143.455+294.598+138.355+299.345+134.532C302.588+131.919+308.528+119.424+307.987+117.834C305.865+111.58+292.032+110.771+286.945+109.539C274.164+106.441+270.269+103.496+261.579+91.9893" fill="#49525d" stroke-linecap="butt" opacity="1" stroke-linejoin="miter"/>
<path stroke="#211611" fill-rule="evenodd" stroke-width="0.1" d="M160.89+158.099C166.971+159.179+183.043+162.569+187.685+179.512C192.838+198.318+184.708+206.702+182.876+209.304C175.601+219.64+144.543+207.185+136.432+202.073C130.27+198.187+117.686+187.336+114.495+180.358C104.711+158.969+117.562+146.535+128.598+151.955C141.87+158.473+144.4+163.499+144.4+163.499C139.904+159.153+128.736+159.574+126.537+161.637C120.181+167.596+123.445+175.043+125.163+180.257C125.787+182.154+134.015+196.105+140.131+199.362C150.186+204.715+157.372+208.319+167.245+206.698C175.995+205.259+179.711+190.149+176.527+182.681C173.344+175.211+170.166+165.547+159.344+158.657" fill="#49525d" stroke-linecap="butt" opacity="1" stroke-linejoin="miter"/>
<path d="M226.814+165.971C229.966+158.672+240.911+144.11+246.424+139.883C253.79+134.233+257.42+131.436+266.781+131.254C271.862+131.156+279.426+142.985+280.68+150.12C283.381+165.482+261.616+182.133+252.359+190.446C247.316+194.975+233.286+204.54+226.43+203.179C219.183+201.742+218.159+192.851+219.081+186.441C221.162+171.972+230.869+160.49+242.628+153.922L243.498+155.074C239.425+159.628+235.534+164.424+231.873+169.376C227.08+175.861+223.256+182.957+222.738+191.36C222.6+193.586+224.056+199.754+226.977+199.26C240.588+196.951+259.739+179.772+269.004+168.633C273.718+162.966+277.244+158.595+278.107+151.747C278.318+150.075+273.467+147.472+272.581+147.123C267.325+145.05+260.486+144.535+255.075+146.325C244.668+149.772+234.938+159.292+227.62+167.717" fill-rule="evenodd" fill="#49525d" opacity="1"/>
<path stroke="#211611" fill-rule="evenodd" stroke-width="0.1" d="M247.206+154.552C254.948+150.19+261.284+156.666+260.695+165.502C260.034+175.453+246.456+192.136+238.999+184.599C228.797+174.288+243.087+143.514+253.158+152.742L254.153+158.218C248.775+159.145+254.155+153.731+251.245+159.213C249.459+162.576+245.466+168.673+249.867+168.754C259.181+168.923+262.318+155.083+248.328+158.201" fill="#49525d" stroke-linecap="butt" opacity="1" stroke-linejoin="miter"/>
<path stroke="#211611" fill-rule="evenodd" stroke-width="0.1" d="M165.957+200.638C170.358+199.659+171.319+189.448+171.009+194.209C169.526+217.009+122.766+186.78+132.426+174.574C148.97+153.67+178.396+175.384+171.024+197.201L156.939+200.925C157.554+200.472+160.346+185.576+156.768+181.726C153.072+177.749+148.396+175.897+147.836+183.608C147.068+194.188+153.739+199.141+165.657+200.777" fill="#49525d" stroke-linecap="butt" opacity="1" stroke-linejoin="miter"/>
<g opacity="1">
<path stroke="#49525d" stroke-width="0.1" d="M469.815+134.411C469.815+141.955+468.503+148.378+465.879+153.681C463.255+158.984+459.674+163.275+455.137+166.555C450.599+169.835+445.297+172.24+439.229+173.771C433.161+175.302+426.628+176.067+419.631+176.067L419.631+202.143L384.699+202.143L384.699+92.755L419.631+92.755C426.628+92.755+433.161+93.5203+439.229+95.051C445.297+96.5817+450.599+98.987+455.137+102.267C459.674+105.547+463.255+109.838+465.879+115.141C468.503+120.444+469.815+126.867+469.815+134.411ZM419.631+146.547L421.107+146.547C425.699+146.547+429.006+145.481+431.029+143.349C433.051+141.217+434.063+138.238+434.063+134.411C434.063+130.584+433.051+127.605+431.029+125.473C429.006+123.341+425.699+122.275+421.107+122.275L419.631+122.275L419.631+146.547Z" fill="#49525d" stroke-linecap="butt" opacity="1" stroke-linejoin="miter"/>
<path stroke="#49525d" stroke-width="0.1" d="M487.8+147.531C487.8+139.659+489.303+132.224+492.31+125.227C495.316+118.23+499.416+112.134+504.61+106.941C509.803+101.748+515.898+97.6477+522.896+94.641C529.893+91.6343+537.328+90.131+545.2+90.131C553.072+90.131+560.506+91.6343+567.504+94.641C574.501+97.6477+580.596+101.748+585.79+106.941C590.983+112.134+595.083+118.23+598.09+125.227C601.096+132.224+602.6+139.659+602.6+147.531C602.6+155.403+601.096+162.838+598.09+169.835C595.083+176.832+590.983+182.928+585.79+188.121C580.596+193.314+574.501+197.414+567.504+200.421C560.506+203.428+553.072+204.931+545.2+204.931C537.328+204.931+529.893+203.428+522.896+200.421C515.898+197.414+509.803+193.314+504.61+188.121C499.416+182.928+495.316+176.832+492.31+169.835C489.303+162.838+487.8+155.403+487.8+147.531ZM522.24+147.531C522.24+150.702+522.841+153.681+524.044+156.469C525.246+159.257+526.886+161.69+528.964+163.767C531.041+165.844+533.474+167.484+536.262+168.687C539.05+169.89+542.029+170.491+545.2+170.491C548.37+170.491+551.35+169.89+554.138+168.687C556.926+167.484+559.358+165.844+561.436+163.767C563.513+161.69+565.153+159.257+566.356+156.469C567.558+153.681+568.16+150.702+568.16+147.531C568.16+144.36+567.558+141.381+566.356+138.593C565.153+135.805+563.513+133.372+561.436+131.295C559.358+129.218+556.926+127.578+554.138+126.375C551.35+125.172+548.37+124.571+545.2+124.571C542.029+124.571+539.05+125.172+536.262+126.375C533.474+127.578+531.041+129.218+528.964+131.295C526.886+133.372+525.246+135.805+524.044+138.593C522.841+141.381+522.24+144.36+522.24+147.531Z" fill="#49525d" stroke-linecap="butt" opacity="1" stroke-linejoin="miter"/>
<path stroke="#49525d" stroke-width="0.1" d="M708.981+134.411C708.981+141.955+707.669+148.378+705.045+153.681C702.421+158.984+698.84+163.275+694.303+166.555C689.765+169.835+684.463+172.24+678.395+173.771C672.327+175.302+665.794+176.067+658.797+176.067L658.797+202.143L623.865+202.143L623.865+92.755L658.797+92.755C665.794+92.755+672.327+93.5203+678.395+95.051C684.463+96.5817+689.765+98.987+694.303+102.267C698.84+105.547+702.421+109.838+705.045+115.141C707.669+120.444+708.981+126.867+708.981+134.411ZM658.797+146.547L660.273+146.547C664.865+146.547+668.172+145.481+670.195+143.349C672.217+141.217+673.229+138.238+673.229+134.411C673.229+130.584+672.217+127.605+670.195+125.473C668.172+123.341+664.865+122.275+660.273+122.275L658.797+122.275L658.797+146.547Z" fill="#49525d" stroke-linecap="butt" opacity="1" stroke-linejoin="miter"/>
<path stroke="#49525d" stroke-width="0.1" d="M814.542+134.411C814.542+141.955+813.23+148.378+810.606+153.681C807.982+158.984+804.401+163.275+799.864+166.555C795.326+169.835+790.024+172.24+783.956+173.771C777.888+175.302+771.355+176.067+764.358+176.067L764.358+202.143L729.426+202.143L729.426+92.755L764.358+92.755C771.355+92.755+777.888+93.5203+783.956+95.051C790.024+96.5817+795.326+98.987+799.864+102.267C804.401+105.547+807.982+109.838+810.606+115.141C813.23+120.444+814.542+126.867+814.542+134.411ZM764.358+146.547L765.834+146.547C770.426+146.547+773.733+145.481+775.756+143.349C777.778+141.217+778.79+138.238+778.79+134.411C778.79+130.584+777.778+127.605+775.756+125.473C773.733+123.341+770.426+122.275+765.834+122.275L764.358+122.275L764.358+146.547Z" fill="#49525d" stroke-linecap="butt" opacity="1" stroke-linejoin="miter"/>
<path stroke="#49525d" stroke-width="0.1" d="M859.915+155.075L825.967+92.755L864.835+92.755L877.463+115.879L889.927+92.755L928.795+92.755L894.847+155.075L894.847+202.143L859.915+202.143L859.915+155.075Z" fill="#49525d" stroke-linecap="butt" opacity="1" stroke-linejoin="miter"/>
<path stroke="#49525d" stroke-width="0.1" d="M1013.2+129.983C1011.23+128.234+1008.77+126.894+1005.82+125.965C1002.87+125.036+999.971+124.571+997.128+124.571C993.957+124.571+991.06+125.145+988.436+126.293C985.812+127.441+983.543+129.026+981.63+131.049C979.717+133.072+978.213+135.504+977.12+138.347C976.027+141.19+975.48+144.251+975.48+147.531C975.48+150.811+976.081+153.872+977.284+156.715C978.487+159.558+980.127+161.99+982.204+164.013C984.281+166.036+986.714+167.621+989.502+168.769C992.29+169.917+995.269+170.491+998.44+170.491C1002.16+170.491+1005.55+169.698+1008.61+168.113C1011.67+166.528+1014.29+164.368+1016.48+161.635L1006.64+161.635L1006.64+138.675L1048.79+138.675L1048.79+175.083C1046.27+179.566+1043.27+183.638+1039.77+187.301C1036.27+190.964+1032.36+194.107+1028.04+196.731C1023.72+199.355+1019.05+201.378+1014.02+202.799C1008.99+204.22+1003.8+204.931+998.44+204.931C990.568+204.931+983.133+203.455+976.136+200.503C969.139+197.551+963.043+193.506+957.85+188.367C952.657+183.228+948.557+177.16+945.55+170.163C942.543+163.166+941.04+155.622+941.04+147.531C941.04+139.659+942.461+132.224+945.304+125.227C948.147+118.23+952.055+112.134+957.03+106.941C962.005+101.748+967.909+97.6477+974.742+94.641C981.575+91.6343+988.928+90.131+996.8+90.131C1002.92+90.131+1008.23+90.7323+1012.71+91.935C1017.19+93.1377+1020.96+94.5043+1024.02+96.035C1027.63+97.7843+1030.64+99.6977+1033.04+101.775L1013.2+129.983Z" fill="#49525d" stroke-linecap="butt" opacity="1" stroke-linejoin="miter"/>
<path stroke="#49525d" stroke-width="0.1" d="M1067.59+147.531C1067.59+139.659+1069.1+132.224+1072.1+125.227C1075.11+118.23+1079.21+112.134+1084.4+106.941C1089.6+101.748+1095.69+97.6477+1102.69+94.641C1109.69+91.6343+1117.12+90.131+1124.99+90.131C1132.86+90.131+1140.3+91.6343+1147.3+94.641C1154.29+97.6477+1160.39+101.748+1165.58+106.941C1170.78+112.134+1174.88+118.23+1177.88+125.227C1180.89+132.224+1182.39+139.659+1182.39+147.531C1182.39+155.403+1180.89+162.838+1177.88+169.835C1174.88+176.832+1170.78+182.928+1165.58+188.121C1160.39+193.314+1154.29+197.414+1147.3+200.421C1140.3+203.428+1132.86+204.931+1124.99+204.931C1117.12+204.931+1109.69+203.428+1102.69+200.421C1095.69+197.414+1089.6+193.314+1084.4+188.121C1079.21+182.928+1075.11+176.832+1072.1+169.835C1069.1+162.838+1067.59+155.403+1067.59+147.531ZM1102.03+147.531C1102.03+150.702+1102.63+153.681+1103.84+156.469C1105.04+159.257+1106.68+161.69+1108.76+163.767C1110.83+165.844+1113.27+167.484+1116.05+168.687C1118.84+169.89+1121.82+170.491+1124.99+170.491C1128.16+170.491+1131.14+169.89+1133.93+168.687C1136.72+167.484+1139.15+165.844+1141.23+163.767C1143.31+161.69+1144.95+159.257+1146.15+156.469C1147.35+153.681+1147.95+150.702+1147.95+147.531C1147.95+144.36+1147.35+141.381+1146.15+138.593C1144.95+135.805+1143.31+133.372+1141.23+131.295C1139.15+129.218+1136.72+127.578+1133.93+126.375C1131.14+125.172+1128.16+124.571+1124.99+124.571C1121.82+124.571+1118.84+125.172+1116.05+126.375C1113.27+127.578+1110.83+129.218+1108.76+131.295C1106.68+133.372+1105.04+135.805+1103.84+138.593C1102.63+141.381+1102.03+144.36+1102.03+147.531Z" fill="#49525d" stroke-linecap="butt" opacity="1" stroke-linejoin="miter"/>
</g>
</g>
<g id="Layer 1" vectornator:layerName="Layer 1">
<g opacity="1">
<path d="M174.733+209.81C161.377+207.258+76.1671+190.474+48.9531+151.553C21.7392+112.632+22.8826+115.607+23.5687+97.5095C24.2548+79.4124+57.6113+61.9727+61.831+62.4552C79.8193+64.5124+72.7727+55.0671+75.9831+55.2038C79.1934+55.3406+87.7624+39.5002+87.7624+39.5002C87.7624+39.5002+127.672+8.26882+167.807+67.929C182.072+89.1325+179.373+72.6837+179.373+72.6837C166.522+35.8023+178.162+16.9401+212.008+22.8898C245.854+28.8396+271.01+46.9368+271.925+54.8697C272.84+62.8027+270.443+78.2638+269.613+81.3228C266.153+94.0802+269.488+98.3241+273.755+97.0137C281.61+94.6004+287.475+90.8161+297.31+95.2784C307.143+99.7408+307.884+107.111+301.938+114.548C295.992+121.986+272.597+147.75+252.839+169.486C233.064+191.241+188.088+212.363+174.733+209.81Z" fill-rule="evenodd" fill="url(#LinearGradient_2)" opacity="1"/>
<path stroke="#211611" stroke-width="0.1" d="M131.996+185.987C121.934+178.739+116.044+163.381+122.45+157.502C128.856+151.623+139.042+151.662+167.146+166.653C178.087+172.49+180.118+190.06+171.936+193.003C153.962+199.469+142.059+193.234+131.996+185.987Z" fill="#ffffff" stroke-linecap="butt" opacity="1" stroke-linejoin="miter"/>
<path stroke="#211611" stroke-width="0.1" d="M212.756+168.091C217.658+157.79+242.566+135.132+249.223+137.491C255.88+139.849+278.552+135.346+260.707+161.201C254.228+170.589+222.032+196.111+215.375+193.753C208.718+191.394+207.854+178.391+212.756+168.091Z" fill="#ffffff" stroke-linecap="butt" opacity="1" stroke-linejoin="miter"/>
<path stroke="#211611" stroke-width="0.1" d="M137.911+185.572C127.849+178.325+124.885+167.684+131.291+161.805C137.697+155.926+151.048+157.035+161.11+164.282C171.173+171.53+174.137+182.17+167.731+188.049C161.325+193.928+147.974+192.819+137.911+185.572Z" fill="#363a3f" stroke-linecap="butt" opacity="1" stroke-linejoin="miter"/>
<path stroke="#211611" stroke-width="0.1" d="M222.102+158.952C227.004+148.651+236.374+142.213+243.031+144.572C249.688+146.93+251.111+157.192+246.209+167.493C241.307+177.794+231.937+184.232+225.28+181.874C218.623+179.515+217.2+169.253+222.102+158.952Z" fill="#363a3f" stroke-linecap="butt" opacity="1" stroke-linejoin="miter"/>
<path stroke="#211611" fill-rule="evenodd" stroke-width="0.1" d="M61.1799+61.7708C36.2535+75.5571+28.8567+86.1906+32.5448+99.5633C36.9466+115.523+49.3483+131.532+51.1332+134.287C55.5314+141.075+82.038+162.761+88.8182+167.536C98.6471+174.458+107.581+182.335+118.172+187.963C128.099+193.24+139.821+195.836+150.231+200.147C158.871+203.725+167.127+205.927+175.844+210.268L176.056+210.21C146.065+204.632+86.4195+190.441+58.3664+164.511C30.3134+138.581+20.8624+109.7+19.8872+97.1849C18.7621+82.7459+45.5374+63.1494+61.0529+61.6329" fill="#363a3f" stroke-linecap="butt" opacity="1" stroke-linejoin="miter"/>
<path stroke="#211611" fill-rule="evenodd" stroke-width="0.1" d="M54.0229+86.8013C54.7347+81.4742+64.7991+66.5+67.2844+62.598C70.9725+56.8077+74.5334+51.9826+82.5456+52.2584C86.1408+52.382+88.65+51.2933+93.7552+62.6287C97.7317+71.4583+94.1951+88.8456+101.571+111.455C108.948+134.065+152.371+142.374+152.371+142.374C133.294+144.166+122.741+141.459+115.917+139.447C91.1076+132.129+87.2278+129.005+83.1755+107.43C81.8764+100.514+87.3409+87.918+86.3821+80.9023C84.4359+66.6618+79.5466+63.553+76.256+65.7174C64.9373+73.162+54.2261+82.3024+53.8038+86.7239" fill="#363a3f" stroke-linecap="butt" opacity="1" stroke-linejoin="miter"/>
<path stroke="#211611" fill-rule="evenodd" stroke-width="0.1" d="M72.8802+40.54C82.9173+10.0041+161.742+36.2801+169.209+69.203L166.052+70.6442C153.79+48.9557+136.805+38.1186+113.958+34.3362C78.9847+28.5459+89.3252+57.3936+72.9208+40.6417" fill="#363a3f" stroke-linecap="butt" opacity="1" stroke-linejoin="miter"/>
<path stroke="#211611" fill-rule="evenodd" stroke-width="0.1" d="M268.036+82.0544C267.148+70.8351+268.723+61.5531+263.758+50.5325C257.662+36.9985+235.52+30.8312+222.578+29.6761C199.356+27.6033+192.538+27.2977+182.58+33.701C177.193+37.1651+176.089+41.5308+178.361+48.1541C180.094+53.2044+182.618+59.3613+183.087+64.9856C183.986+75.7639+175.249+85.3338+174.311+95.7213C173.363+106.224+173.197+111.691+175.443+121.562C176.688+127.032+177.413+132.675+178.463+138.193L178.205+138.259C176.429+132.181+175.324+125.771+173.205+119.82C170.16+111.268+165.642+103.13+166.378+93.7089C167.084+84.6743+175.299+74.9282+174.145+65.8505C173.553+61.1941+170.56+57.2294+168.801+53.064C165.254+44.669+166.718+33.0295+172.397+26.0404C179.839+16.882+207.958+14.6966+235.663+21.7339C248.888+25.0935+265.211+32.8943+270.508+48.0827C274.351+59.0968+270.018+70.9521+269.14+82.0544" fill="#363a3f" stroke-linecap="butt" opacity="1" stroke-linejoin="miter"/>
<path stroke="#211611" fill-rule="evenodd" stroke-width="0.1" d="M258.695+74.682C256.377+73.2541+250.212+77.2291+247.219+78.1581C244.77+78.9184+241.932+81.3165+241.454+83.4415C239.261+93.1832+246.176+99.8335+244.518+109.626C242.773+119.942+223.789+136.916+219.203+146.033L213.723+144.268C222.583+122.147+231.977+116.003+233.032+112.225C235.855+102.105+228.992+90.7817+241.312+73.2184C243.478+70.1296+255.291+71.686+257.852+73.5843" fill="#363a3f" stroke-linecap="butt" opacity="1" stroke-linejoin="miter"/>
<path stroke="#211611" fill-rule="evenodd" stroke-width="0.1" d="M251.367+85.9823C255.868+92.2514+266.728+91.9804+273.87+93.0382C282.143+94.2634+292.358+86.0776+300.723+88.963C307.926+91.4485+313.905+108.277+307.813+118.274C305.903+121.406+294.273+130.888+291.135+133.318C286.714+136.741+281.794+139.924+277.061+142.824L276.17+141.539C280.208+137.133+282.733+132.122+287.397+128.365C290.584+125.799+296.419+113.521+295.888+111.959C293.803+105.814+280.212+105.02+275.213+103.808C262.655+100.765+258.828+97.8712+250.29+86.5654" fill="#363a3f" stroke-linecap="butt" opacity="1" stroke-linejoin="miter"/>
<path stroke="#211611" fill-rule="evenodd" stroke-width="0.1" d="M163.381+164.644C163.381+164.644+183.933+172.391+178.186+188.2C172.159+204.78+142.527+196.705+134.559+191.962C128.504+188.358+116.139+178.292+113.004+171.819C103.391+151.978+111.124+145.549+123.145+144.345C135.822+143.075+168.932+150.056+180.239+171.221C169.171+161.672+137.358+146.056+126.244+160.072C125.253+161.322+121.388+164.654+123.485+171.726C125.582+178.798+132.294+187.176+138.304+190.197C148.184+195.163+152.103+195.558+161.897+194.886C167.341+194.512+174.453+188.201+174.689+183.206C175.275+170.857+163.381+164.644+163.381+164.644Z" fill="#363a3f" stroke-linecap="butt" opacity="1" stroke-linejoin="miter"/>
<path d="M213.723+158.786C216.82+151.614+229.983+137.776+235.399+133.623C242.637+128.072+246.204+125.324+255.401+125.145C260.394+125.048+267.825+136.671+269.058+143.681C271.711+158.776+250.326+175.136+241.231+183.304C236.276+187.754+222.491+197.151+215.754+195.815C208.634+194.403+207.628+185.667+208.534+179.369C210.578+165.152+222.602+152.486+234.156+146.033L232.524+148.549C228.523+153.024+224.7+157.736+221.103+162.601C216.393+168.974+212.635+175.945+212.127+184.202C211.992+186.389+213.422+192.449+216.291+191.964C229.665+189.695+248.482+172.816+257.586+161.871C262.217+156.303+265.682+152.008+266.53+145.28C266.737+143.637+261.97+141.08+261.1+140.737C255.936+138.7+249.216+138.194+243.9+139.953C233.675+143.339+220.913+150.507+213.723+158.786" fill-rule="evenodd" fill="#363a3f" opacity="1"/>
<path stroke="#211611" stroke-width="0.1" d="M231.983+149.654C233.525+148.858+235.049+152.804+235.049+152.804C235.049+152.804+228.009+155.35+224.38+159.86C223.941+160.407+223.464+156.871+223.771+156.424C226.061+153.088+230.809+150.259+231.983+149.654Z" fill="#ffffff" stroke-linecap="butt" opacity="1" stroke-linejoin="miter"/>
<path stroke="#211611" stroke-width="0.1" d="M251.312+212.428" fill="#ffffff" stroke-linecap="butt" opacity="1" stroke-linejoin="miter"/>
<path d="M149.357+170.714C153.235+166.651+157.515+166.578+158.918+170.55C160.321+174.522+158.315+181.036+154.437+185.099C150.56+189.162+146.279+189.235+144.876+185.263C143.474+181.291+145.48+174.777+149.357+170.714Z" opacity="1" fill="#ffffff"/>
<path stroke="#211611" stroke-width="0.1" d="M225.025+172.974C223.052+168.289+223.61+163.183+226.271+161.57C228.931+159.957+232.687+162.447+234.66+167.132C236.633+171.818+236.075+176.924+233.414+178.537C230.754+180.15+226.998+177.659+225.025+172.974Z" fill="#ffffff" stroke-linecap="butt" opacity="1" stroke-linejoin="miter"/>
<path stroke="#211611" stroke-width="0.1" d="M137.778+162.251C140.715+160.931+147.001+161.017+144.187+162.357C139.358+164.658+137.474+168.422+136.911+171.108C136.348+173.794+132.231+167.148+132.231+167.148C132.231+167.148+134.472+163.736+137.778+162.251Z" fill="#ffffff" stroke-linecap="butt" opacity="1" stroke-linejoin="miter"/>
</g>
<g opacity="1">
<path stroke="#49525d" stroke-width="0.1" d="M469.815+127.165C469.815+134.709+468.503+141.133+465.879+146.435C463.255+151.738+459.674+156.029+455.137+159.309C450.599+162.589+445.297+164.995+439.229+166.525C433.161+168.056+426.628+168.821+419.631+168.821L419.631+194.897L384.699+194.897L384.699+85.5094L419.631+85.5094C426.628+85.5094+433.161+86.2747+439.229+87.8054C445.297+89.336+450.599+91.7414+455.137+95.0214C459.674+98.3014+463.255+102.593+465.879+107.895C468.503+113.198+469.815+119.621+469.815+127.165ZM419.631+139.301L421.107+139.301C425.699+139.301+429.006+138.235+431.029+136.103C433.051+133.971+434.063+130.992+434.063+127.165C434.063+123.339+433.051+120.359+431.029+118.227C429.006+116.095+425.699+115.029+421.107+115.029L419.631+115.029L419.631+139.301Z" fill="#2f343c" stroke-linecap="butt" opacity="1" stroke-linejoin="miter"/>
<path stroke="#49525d" stroke-width="0.1" d="M487.8+140.285C487.8+132.413+489.303+124.979+492.31+117.981C495.316+110.984+499.416+104.889+504.61+99.6954C509.803+94.502+515.898+90.402+522.896+87.3954C529.893+84.3887+537.328+82.8854+545.2+82.8854C553.072+82.8854+560.506+84.3887+567.504+87.3954C574.501+90.402+580.596+94.502+585.79+99.6954C590.983+104.889+595.083+110.984+598.09+117.981C601.096+124.979+602.6+132.413+602.6+140.285C602.6+148.157+601.096+155.592+598.09+162.589C595.083+169.587+590.983+175.682+585.79+180.875C580.596+186.069+574.501+190.169+567.504+193.175C560.506+196.182+553.072+197.685+545.2+197.685C537.328+197.685+529.893+196.182+522.896+193.175C515.898+190.169+509.803+186.069+504.61+180.875C499.416+175.682+495.316+169.587+492.31+162.589C489.303+155.592+487.8+148.157+487.8+140.285ZM522.24+140.285C522.24+143.456+522.841+146.435+524.044+149.223C525.246+152.011+526.886+154.444+528.964+156.521C531.041+158.599+533.474+160.239+536.262+161.441C539.05+162.644+542.029+163.245+545.2+163.245C548.37+163.245+551.35+162.644+554.138+161.441C556.926+160.239+559.358+158.599+561.436+156.521C563.513+154.444+565.153+152.011+566.356+149.223C567.558+146.435+568.16+143.456+568.16+140.285C568.16+137.115+567.558+134.135+566.356+131.347C565.153+128.559+563.513+126.127+561.436+124.049C559.358+121.972+556.926+120.332+554.138+119.129C551.35+117.927+548.37+117.325+545.2+117.325C542.029+117.325+539.05+117.927+536.262+119.129C533.474+120.332+531.041+121.972+528.964+124.049C526.886+126.127+525.246+128.559+524.044+131.347C522.841+134.135+522.24+137.115+522.24+140.285Z" fill="#2f343c" stroke-linecap="butt" opacity="1" stroke-linejoin="miter"/>
<path stroke="#49525d" stroke-width="0.1" d="M708.981+127.165C708.981+134.709+707.669+141.133+705.045+146.435C702.421+151.738+698.84+156.029+694.303+159.309C689.765+162.589+684.463+164.995+678.395+166.525C672.327+168.056+665.794+168.821+658.797+168.821L658.797+194.897L623.865+194.897L623.865+85.5094L658.797+85.5094C665.794+85.5094+672.327+86.2747+678.395+87.8054C684.463+89.336+689.765+91.7414+694.303+95.0214C698.84+98.3014+702.421+102.593+705.045+107.895C707.669+113.198+708.981+119.621+708.981+127.165ZM658.797+139.301L660.273+139.301C664.865+139.301+668.172+138.235+670.195+136.103C672.217+133.971+673.229+130.992+673.229+127.165C673.229+123.339+672.217+120.359+670.195+118.227C668.172+116.095+664.865+115.029+660.273+115.029L658.797+115.029L658.797+139.301Z" fill="#2f343c" stroke-linecap="butt" opacity="1" stroke-linejoin="miter"/>
<path stroke="#49525d" stroke-width="0.1" d="M814.542+127.165C814.542+134.709+813.23+141.133+810.606+146.435C807.982+151.738+804.401+156.029+799.864+159.309C795.326+162.589+790.024+164.995+783.956+166.525C777.888+168.056+771.355+168.821+764.358+168.821L764.358+194.897L729.426+194.897L729.426+85.5094L764.358+85.5094C771.355+85.5094+777.888+86.2747+783.956+87.8054C790.024+89.336+795.326+91.7414+799.864+95.0214C804.401+98.3014+807.982+102.593+810.606+107.895C813.23+113.198+814.542+119.621+814.542+127.165ZM764.358+139.301L765.834+139.301C770.426+139.301+773.733+138.235+775.756+136.103C777.778+133.971+778.79+130.992+778.79+127.165C778.79+123.339+777.778+120.359+775.756+118.227C773.733+116.095+770.426+115.029+765.834+115.029L764.358+115.029L764.358+139.301Z" fill="#2f343c" stroke-linecap="butt" opacity="1" stroke-linejoin="miter"/>
<path stroke="#49525d" stroke-width="0.1" d="M859.915+147.829L825.967+85.5094L864.835+85.5094L877.463+108.633L889.927+85.5094L928.795+85.5094L894.847+147.829L894.847+194.897L859.915+194.897L859.915+147.829Z" fill="#2f343c" stroke-linecap="butt" opacity="1" stroke-linejoin="miter"/>
<path stroke="#49525d" stroke-width="0.1" d="M1013.2+122.737C1011.23+120.988+1008.77+119.649+1005.82+118.719C1002.87+117.79+999.971+117.325+997.128+117.325C993.957+117.325+991.06+117.899+988.436+119.047C985.812+120.195+983.543+121.781+981.63+123.803C979.717+125.826+978.213+128.259+977.12+131.101C976.027+133.944+975.48+137.005+975.48+140.285C975.48+143.565+976.081+146.627+977.284+149.469C978.487+152.312+980.127+154.745+982.204+156.767C984.281+158.79+986.714+160.375+989.502+161.523C992.29+162.671+995.269+163.245+998.44+163.245C1002.16+163.245+1005.55+162.453+1008.61+160.867C1011.67+159.282+1014.29+157.123+1016.48+154.389L1006.64+154.389L1006.64+131.429L1048.79+131.429L1048.79+167.837C1046.27+172.32+1043.27+176.393+1039.77+180.055C1036.27+183.718+1032.36+186.861+1028.04+189.485C1023.72+192.109+1019.05+194.132+1014.02+195.553C1008.99+196.975+1003.8+197.685+998.44+197.685C990.568+197.685+983.133+196.209+976.136+193.257C969.139+190.305+963.043+186.26+957.85+181.121C952.657+175.983+948.557+169.915+945.55+162.917C942.543+155.92+941.04+148.376+941.04+140.285C941.04+132.413+942.461+124.979+945.304+117.981C948.147+110.984+952.055+104.889+957.03+99.6954C962.005+94.502+967.909+90.402+974.742+87.3954C981.575+84.3887+988.928+82.8854+996.8+82.8854C1002.92+82.8854+1008.23+83.4867+1012.71+84.6894C1017.19+85.892+1020.96+87.2587+1024.02+88.7894C1027.63+90.5387+1030.64+92.452+1033.04+94.5294L1013.2+122.737Z" fill="#2f343c" stroke-linecap="butt" opacity="1" stroke-linejoin="miter"/>
<path stroke="#49525d" stroke-width="0.1" d="M1067.59+140.285C1067.59+132.413+1069.1+124.979+1072.1+117.981C1075.11+110.984+1079.21+104.889+1084.4+99.6954C1089.6+94.502+1095.69+90.402+1102.69+87.3954C1109.69+84.3887+1117.12+82.8854+1124.99+82.8854C1132.86+82.8854+1140.3+84.3887+1147.3+87.3954C1154.29+90.402+1160.39+94.502+1165.58+99.6954C1170.78+104.889+1174.88+110.984+1177.88+117.981C1180.89+124.979+1182.39+132.413+1182.39+140.285C1182.39+148.157+1180.89+155.592+1177.88+162.589C1174.88+169.587+1170.78+175.682+1165.58+180.875C1160.39+186.069+1154.29+190.169+1147.3+193.175C1140.3+196.182+1132.86+197.685+1124.99+197.685C1117.12+197.685+1109.69+196.182+1102.69+193.175C1095.69+190.169+1089.6+186.069+1084.4+180.875C1079.21+175.682+1075.11+169.587+1072.1+162.589C1069.1+155.592+1067.59+148.157+1067.59+140.285ZM1102.03+140.285C1102.03+143.456+1102.63+146.435+1103.84+149.223C1105.04+152.011+1106.68+154.444+1108.76+156.521C1110.83+158.599+1113.27+160.239+1116.05+161.441C1118.84+162.644+1121.82+163.245+1124.99+163.245C1128.16+163.245+1131.14+162.644+1133.93+161.441C1136.72+160.239+1139.15+158.599+1141.23+156.521C1143.31+154.444+1144.95+152.011+1146.15+149.223C1147.35+146.435+1147.95+143.456+1147.95+140.285C1147.95+137.115+1147.35+134.135+1146.15+131.347C1144.95+128.559+1143.31+126.127+1141.23+124.049C1139.15+121.972+1136.72+120.332+1133.93+119.129C1131.14+117.927+1128.16+117.325+1124.99+117.325C1121.82+117.325+1118.84+117.927+1116.05+119.129C1113.27+120.332+1110.83+121.972+1108.76+124.049C1106.68+126.127+1105.04+128.559+1103.84+131.347C1102.63+134.135+1102.03+137.115+1102.03+140.285Z" fill="#2f343c" stroke-linecap="butt" opacity="1" stroke-linejoin="miter"/>
</g>
</g>
</svg>
